<svg version="1.1" xmlns="http://www.w3.org/2000/svg" xmlns:xlink="http://www.w3.org/1999/xlink" viewBox="0 0 172 172"><g fill="none" fill-rule="nonzero" stroke="none" stroke-width="1" stroke-linecap="butt" stroke-linejoin="miter" stroke-miterlimit="10" stroke-dasharray="" stroke-dashoffset="0" font-family="none" font-weight="none" font-size="none" text-anchor="none" style="mix-blend-mode: normal"><path d="M0,172v-172h172v172z" fill="none"></path><g fill="#004d40"><path d="M79.92513,0v42.88802c-4.171,-1.0965 -7.62041,-1.46973 -12.14974,-1.46973c-29.20417,0 -48.06706,18.63736 -48.06706,47.3112c0,29.77033 17.77535,45.28158 51.87435,45.28158c11.42367,0.00717 21.94109,-1.08362 36.26725,-3.82129v-130.18978zM124.36686,0.15397v28.84863h27.9248v-28.84863zM124.36686,43.41992v55.52767c0,24.467 -1.27119,33.77639 -5.26302,41.81022c-3.8055,7.85467 -9.79605,12.97167 -22.12989,18.8125l25.93718,12.42969c12.33383,-6.20633 18.32125,-11.86296 22.85775,-20.81413c4.89483,-9.3095 6.52278,-20.09175 6.52278,-42.55208v-65.19987v-0.014zM71.05078,64.05208c3.17483,0 6.21585,0.53806 8.86035,1.46973v45.11361c-3.98467,0.55183 -6.52055,0.72787 -9.60222,0.72786c-14.319,0.00717 -22.12988,-8.20135 -22.12988,-23.17968c0,-15.33322 8.14778,-24.1054 22.28385,-24.11752c0.20067,-0.01433 0.39439,-0.014 0.58789,-0.014z"></path></g></g></svg>