<?xml version="1.0" encoding="utf-8"?>
<!-- Generator: Adobe Illustrator 26.0.3, SVG Export Plug-In . SVG Version: 6.00 Build 0)  -->
<svg version="1.1" id="Capa_1" xmlns:serif="http://www.serif.com/"
	 xmlns="http://www.w3.org/2000/svg" xmlns:xlink="http://www.w3.org/1999/xlink" x="0px" y="0px" viewBox="0 0 150 150"
	 style="enable-background:new 0 0 150 150;" xml:space="preserve">
<style type="text/css">
	.st0{fill-rule:evenodd;clip-rule:evenodd;fill:#39B54A;}
	.st1{enable-background:new    ;}
	.st2{fill:#FFFFFF;}
</style>
<g>
	<g transform="matrix(0.269311,0,0,0.269311,-6748.55,-970.061)">
		<circle class="st0" cx="25337.1" cy="3880.5" r="276"/>
	</g>
	<g transform="matrix(0.370652,0,0,0.370652,-9350.04,-1379.46)">
		<g class="st1">
			<path class="st2" d="M25398.4,3949.8l26,3.2c-4.1,15.2-11.7,27-22.8,35.3c-11.1,8.4-25.2,12.6-42.5,12.6
				c-21.7,0-38.9-6.7-51.6-20c-12.7-13.4-19.1-32.1-19.1-56.2c0-25,6.4-44.3,19.3-58.1c12.9-13.8,29.5-20.7,50-20.7
				c19.8,0,36,6.8,48.6,20.2c12.6,13.5,18.9,32.5,18.9,57c0,1.5-0.1,3.7-0.1,6.7h-110.6c0.9,16.3,5.5,28.8,13.8,37.4s18.6,13,31,13
				c9.2,0,17.1-2.4,23.6-7.3C25389.4,3968.1,25394.6,3960.4,25398.4,3949.8z M25315.9,3909.2h82.8c-1.1-12.5-4.3-21.8-9.5-28.1
				c-8-9.7-18.4-14.5-31.1-14.5c-11.5,0-21.3,3.9-29.1,11.6C25321.1,3885.9,25316.7,3896.2,25315.9,3909.2z"/>
			<path class="st2" d="M25439.2,3997.6l54.2-77.1l-50.1-71.2h31.4l22.8,34.8c4.3,6.6,7.7,12.2,10.3,16.6
				c4.1-6.1,7.9-11.6,11.3-16.3l25-35.1h30l-51.3,69.8l55.2,78.5h-30.9l-30.4-46.1l-8.1-12.4l-39,58.5H25439.2z"/>
		</g>
	</g>
</g>
</svg>
