<?xml version="1.0" encoding="utf-8"?>
<!-- Generator: Adobe Illustrator 26.0.3, SVG Export Plug-In . SVG Version: 6.00 Build 0)  -->
<svg version="1.1" id="Capa_1" xmlns:serif="http://www.serif.com/"
	 xmlns="http://www.w3.org/2000/svg" xmlns:xlink="http://www.w3.org/1999/xlink" x="0px" y="0px" viewBox="0 0 150 150"
	 style="enable-background:new 0 0 150 150;" xml:space="preserve">
<style type="text/css">
	.st0{fill:#599636;}
	.st1{fill:#6CAC48;}
	.st2{fill:#C2BFBF;}
</style>
<g>
	<g transform="matrix(1.97267,0,0,1.97267,11.8741,11.8715)">
		<path class="st0" d="M31.8-5l2,3.7c0.4,0.7,0.9,1.3,1.5,1.9c1.7,1.7,3.2,3.4,4.7,5.3c3.4,4.4,5.6,9.3,7.2,14.6
			c1,3.2,1.5,6.6,1.5,9.9c0.2,10-3.3,18.7-10.2,25.8c-1.1,1.1-2.3,2.2-3.6,3.1c-0.7,0-1-0.5-1.3-1c-0.5-0.9-0.9-1.9-1-2.9
			c-0.2-1.2-0.4-2.4-0.3-3.7v-0.6C32.1,51.1,31.5-4.7,31.8-5z"/>
	</g>
	<g transform="matrix(1.97267,0,0,1.97267,11.8741,11.8715)">
		<path class="st1" d="M31.8-5.1c-0.1-0.2-0.2,0-0.2,0c0,0.8-0.2,1.5-0.7,2.2c-0.5,0.7-1.1,1.2-1.8,1.8c-3.6,3.1-6.4,6.9-8.7,11.1
			c-3,5.7-4.6,11.7-5,18.1c-0.2,2.3,0.7,10.4,1.5,12.8c2,6.2,5.5,11.5,10.2,16c1.1,1.1,2.3,2.1,3.6,3.1c0.4,0,0.4-0.3,0.5-0.6
			c0.2-0.5,0.3-1,0.4-1.6l0.8-6.1L31.8-5.1z"/>
	</g>
	<g transform="matrix(1.97267,0,0,1.97267,11.8741,11.8715)">
		<path class="st2" d="M33.8,61.8c0.1-0.9,0.5-1.7,1-2.5c-0.5-0.2-0.9-0.6-1.1-1.1c-0.2-0.4-0.4-0.9-0.6-1.3
			c-0.6-1.7-0.7-3.5-0.9-5.2v-1.1c-0.2,0.2-0.2,1.5-0.2,1.7c-0.1,1.8-0.4,3.7-0.7,5.5c-0.1,0.7-0.2,1.5-0.7,2.1c0,0.1,0,0.2,0,0.3
			c0.7,2.1,0.9,4.3,1.1,6.6v0.8c0,1,0,0.8,0.8,1.1c0.3,0.1,0.7,0.2,1,0.4c0.2,0,0.3-0.2,0.3-0.4l-0.1-1.3v-3.7
			C33.5,63.1,33.7,62.5,33.8,61.8L33.8,61.8z"/>
	</g>
</g>
</svg>
