<svg xmlns="http://www.w3.org/2000/svg" xmlns:xlink="http://www.w3.org/1999/xlink" viewBox="0 0 50 50"><defs><path id="a" d="M36.2 23.7s-.4-3.6-4-3.6-6.1.5-6.1 2.6 7.1 2.1 9.8 3c2.7.9 5.1 3 3.9 6.8-1.2 3.8-4.8 4.2-10.5 4.2s-6.9-4.9-6.9-6.8h3.2s-.4 3 3.4 3.5c3.7.5 7.3.8 7.8-2.3.6-4-12.1-2-13.2-5.9-1-3.3-.4-7.7 5.9-8.4 6.3-.7 9.8 2.3 9.8 6.6l-3.1.3z"/></defs><clipPath id="b"><use xlink:href="#a" overflow="visible"/></clipPath><g clip-path="url(#b)"><defs><path id="c" d="M-1083.5-552.8H610.4v2039.6h-1693.9z"/></defs><clipPath id="d"><use xlink:href="#c" overflow="visible"/></clipPath><path clip-path="url(#d)" fill="#39b54a" d="M16.1 10.6h30.1V43H16.1z"/></g><defs><path id="e" d="M4.6 37.3l6.9 4.1c3.5 2.1 7.8-.5 7.8-4.7V16.1h-2.8v19.8c0 2.3-2.4 3.7-4.2 2.6l-4.8-2.9V14.4L25 3.9l17.5 10.6v21.1L25 46.1l-5.1-3-3.3 1.4 8.4 5.1 20.4-12.3V12.7L25 .5 4.6 12.7v24.6z"/></defs><clipPath id="f"><use xlink:href="#e" overflow="visible"/></clipPath><g clip-path="url(#f)"><defs><path id="g" d="M-1083.5-552.8H610.4v2039.6h-1693.9z"/></defs><clipPath id="h"><use xlink:href="#g" overflow="visible"/></clipPath><path clip-path="url(#h)" fill="#39b54a" d="M-1.6-5.7h53.1v61.4H-1.6z"/></g></svg>