<svg xmlns="http://www.w3.org/2000/svg" xmlns:xlink="http://www.w3.org/1999/xlink" viewBox="0 0 50 50"><path d="M39.5 30.5c-.2 0-.5.2-.8.3-.6-2-1.4-4-2.4-6 .9-2 1.7-4 2.4-5.9l1.4.5c4.4 1.5 7.1 3.7 7.1 5.5-.1 1.6-3 4.1-7.7 5.6zm-1.7 10.1c-.3 1.5-.9 2.5-1.6 2.9-1.6.9-4.7-.3-8.2-3.2-.5-.3-.8-.8-1.3-1.1 1.3-1.4 2.7-3.2 3.9-5.1 2.4-.2 4.4-.5 6.5-.9.2.5.2.8.3 1.2.5 2.3.7 4.5.4 6.2zm-12.5-2.8c-.9-1.1-1.9-2.2-2.8-3.4h5.7c-1 1.2-1.9 2.3-2.9 3.4zm-2.4 2.3c-1.7 1.7-3.6 2.8-5.4 3.4-1.4.5-2.7.5-3.3.2-1.6-.9-2.2-4.2-1.3-8.6l.3-1.5c2.1.5 4.3.8 6.5.9 1.3 1.8 2.7 3.5 4.1 5.1-.2-.1-.5.2-.9.5zm-11-9.2c-.3 0-.8-.2-1.1-.3-2.4-.8-4.3-1.8-5.5-2.9-1.1-.9-1.7-2-1.7-2.8 0-1.7 2.7-3.9 6.9-5.4.5-.2 1.1-.3 1.6-.5.6 1.8 1.4 3.9 2.4 6-1.2 1.8-2 3.8-2.6 5.9zm2.5-24.8c1.6-.9 5 .5 8.8 3.7.2.3.5.5.6.6-1.4 1.5-2.7 3.2-4.1 5.1-2.2.2-4.4.5-6.5.9-.2-.5-.2-.9-.3-1.5-.7-4.5-.1-7.9 1.5-8.8zm10.9 5.8c.9 1.1 1.9 2.2 2.8 3.4-1.9-.2-3.8-.2-5.7 0 1-1.2 2-2.3 2.9-3.4zm8.4 8l-1.4-2.3c1.6.2 3 .5 4.4.8-.5 1.4-.9 2.6-1.6 4.2-.5-1-1-1.8-1.4-2.7zm0 9.7c.5-.8.9-1.7 1.4-2.5.6 1.4 1.1 2.8 1.6 4.2-1.4.3-2.8.6-4.4.8.6-.9.9-1.7 1.4-2.5zm-17.1-4.8c.6-1.2 1.3-2.6 2.1-3.9.6-1.2 1.6-2.5 2.4-3.7 2.8-.2 5.8-.2 8.7 0l2.4 3.7c.8 1.2 1.4 2.5 2.1 3.9-.6 1.2-1.4 2.5-2.2 3.7-.6 1.2-1.6 2.5-2.2 3.7-1.4.2-2.8.2-4.4.2-1.6 0-2.8 0-4.3-.2l-2.4-3.7c-.9-1-1.5-2.4-2.2-3.7zm-2.5-6.6c1.4-.3 2.8-.6 4.3-.8-.5.8-.9 1.5-1.4 2.5-.5.8-.9 1.5-1.3 2.5-.8-1.4-1.3-2.8-1.6-4.2zm2.8 11.4c.5.8.9 1.5 1.6 2.5-1.4-.2-3-.5-4.4-.8.5-1.4.9-2.8 1.6-4.2.3 1 .8 1.7 1.2 2.5zM27.8 9.4c3.5-3.1 6.8-4.3 8.4-3.4 1.6.9 2.2 4.6 1.3 9.4 0 .3-.2.6-.2.9-2.1-.5-4.3-.8-6.5-.9-1.3-1.7-2.5-3.4-3.9-5.1.1-.2.6-.6.9-.9zm12.8 8c-.5-.2-1.1-.3-1.6-.5 0-.3.2-.8.2-1.1 1.1-5.5.5-10.2-2.2-11.6-2.5-1.4-6.6 0-10.7 3.7-.5.3-.8.8-1.1 1.1l-.8-.8C20.1 4.5 15.7 3 13.2 4.5 10.6 5.9 10 10.2 11 15.4l.3 1.5c-.6.2-1.1.3-1.7.6-5 1.7-8.4 4.5-8.4 7.4 0 2.9 3.5 5.9 8.7 7.7.5.2.9.3 1.3.5-.2.6-.3 1.1-.3 1.7-.9 5.2-.2 9.4 2.2 10.8 2.5 1.4 6.8 0 11-3.7l.9-.9c.5.5.9.8 1.3 1.2 4.1 3.4 8 4.8 10.6 3.4s3.3-6 2.4-11.2c0-.5-.2-.8-.3-1.2.3-.2.6-.2.9-.3 5.5-1.8 9-4.8 9-7.7.2-3.3-3.1-6.1-8.3-7.8z" fill="#3fa9f5"/><defs><path id="a" d="M25.8 21.1c2.2 0 4 1.7 4 3.9s-1.8 3.9-4 3.9-4-1.7-4-3.9 1.8-3.9 4-3.9"/></defs><use xlink:href="#a" overflow="visible" fill="#3fa9f5"/><clipPath id="b"><use xlink:href="#a" overflow="visible"/></clipPath><g clip-path="url(#b)"><defs><path id="c" d="M-535.5-522.2h1605.4v1933.1H-535.5z"/></defs><use xlink:href="#c" overflow="visible" fill="#3fa9f5"/></g></svg>