<?xml version="1.0" encoding="UTF-8"?>
<svg xmlns="http://www.w3.org/2000/svg" xmlns:xlink="http://www.w3.org/1999/xlink" viewBox="0 0 240 240" width="240px" height="240px">
<defs>
<linearGradient id="linear0" gradientUnits="userSpaceOnUse" x1="78.335251" y1="29.515921" x2="92.102417" y2="130.977997" gradientTransform="matrix(1.395349,0,0,1.395349,0,0)">
<stop offset="0" style="stop-color:rgb(0%,75.686276%,87.843138%);stop-opacity:1;"/>
<stop offset="1" style="stop-color:rgb(0%,60.784316%,72.156864%);stop-opacity:1;"/>
</linearGradient>
</defs>
<g id="surface5019765">
<path style=" stroke:none;fill-rule:nonzero;fill:url(#linear0);" d="M 120 48.019531 C 92.054688 48.019531 73.265625 60.214844 63.621094 84.609375 C 62.621094 87.136719 65.703125 89.210938 67.699219 87.363281 C 77.875 77.953125 89.308594 74.839844 102 78.011719 C 111.128906 80.289062 117.65625 86.914062 124.878906 94.246094 C 136.640625 106.179688 150.253906 120 180 120 C 207.945312 120 226.738281 107.800781 236.378906 83.40625 C 237.378906 80.878906 234.296875 78.804688 232.300781 80.648438 C 222.125 90.058594 210.691406 93.179688 198 90.011719 C 188.875 87.730469 182.351562 81.105469 175.125 73.773438 C 163.359375 61.835938 149.738281 48.019531 120 48.019531 Z M 60 120 C 32.054688 120 13.261719 132.199219 3.621094 156.59375 C 2.621094 159.121094 5.703125 161.195312 7.699219 159.351562 C 17.875 149.941406 29.308594 146.820312 42 149.996094 C 51.125 152.28125 57.648438 158.898438 64.875 166.226562 C 76.640625 178.164062 90.261719 191.984375 120 191.984375 C 147.945312 191.984375 166.738281 179.785156 176.378906 155.390625 C 177.378906 152.863281 174.296875 150.789062 172.300781 152.636719 C 162.125 162.046875 150.691406 165.164062 138 161.988281 C 128.871094 159.710938 122.34375 153.085938 115.121094 145.761719 C 103.359375 133.820312 89.746094 120 60 120 Z M 60 120 "/>
</g>
</svg>
